<svg width="1920" height="776" fill="none" xmlns="http://www.w3.org/2000/svg"><g opacity=".5" filter="url(#filter0_d_1_192)"><path d="M389.445 30c-220 0-349.921 46.314-466.501 175.5C-233.121 378.441-210.123 502.742-19.055 636c149.525 104.284 248.202 14.127 430.5 14.5 236.77.484 374.789 38.168 611.505 43.5 202.21 4.555 401.53-37.408 602.5-14.5 135.9 15.492 204.94 49.4 332.5 0 210.67-81.591 130.24-221.752-29.51-381.5-105.5-105.5-203.03-154.199-341-167-204.61-18.985-311.71 107.347-517 98C803.368 216.839 656.797 30 389.445 30z" fill="url(#paint0_linear_1_192)"/></g><defs><linearGradient id="paint0_linear_1_192" x1="-515.404" y1="751.279" x2="-187.325" y2="-609.98" gradientUnits="userSpaceOnUse"><stop stop-color="#9796F0"/><stop offset="1" stop-color="#FFE0E8"/></linearGradient><filter id="filter0_d_1_192" x="-230" y="0" width="2365.08" height="775.319" filterUnits="userSpaceOnUse" color-interpolation-filters="sRGB"><feFlood flood-opacity="0" result="BackgroundImageFix"/><feColorMatrix in="SourceAlpha" values="0 0 0 0 0 0 0 0 0 0 0 0 0 0 0 0 0 0 127 0" result="hardAlpha"/><feOffset dy="20"/><feGaussianBlur stdDeviation="25"/><feColorMatrix values="0 0 0 0 0 0 0 0 0 0 0 0 0 0 0 0 0 0 0.1 0"/><feBlend in2="BackgroundImageFix" result="effect1_dropShadow_1_192"/><feBlend in="SourceGraphic" in2="effect1_dropShadow_1_192" result="shape"/></filter></defs></svg>